STARTFONT 2.1
COMMENT Exported by Fony v1.4.7
FONT audioicons_20x20
SIZE 20 96 96
FONTBOUNDINGBOX 25 19 0 -7
STARTPROPERTIES 6
COPYRIGHT "Created with Fony 1.4.7"
RESOLUTION_X 96
RESOLUTION_Y 96
FONT_ASCENT 13
FONT_DESCENT 7
DEFAULT_CHAR 0
ENDPROPERTIES
CHARS 135
STARTCHAR 000
ENCODING 0
SWIDTH 936 0
DWIDTH 13 0
BBX 0 0 0 0
BITMAP
ENDCHAR
STARTCHAR 001
ENCODING 1
SWIDTH 1152 0
DWIDTH 16 0
BBX 13 20 1 -7
BITMAP
0700
0780
07C0
46E0
E670
7638
3E38
1E70
0EE0
07C0
07C0
0EE0
1E70
3E38
7638
E670
46E0
07C0
0780
0700
ENDCHAR
STARTCHAR 002
ENCODING 2
SWIDTH 1368 0
DWIDTH 19 0
BBX 17 20 0 -7
BITMAP
038000
03C000
03E000
237000
733800
3B1C00
1F1C00
8F3880
C77180
E3E380
E3E380
C77180
8F3880
1F1C00
3B1C00
733800
237000
03E000
03C000
038000
ENDCHAR
STARTCHAR 003
ENCODING 3
SWIDTH 1584 0
DWIDTH 22 0
BBX 20 18 0 -6
BITMAP
006000
036C00
090900
0C0300
206040
616860
030C00
C80130
0C0300
006000
3168C0
130C80
000000
060600
006000
00F000
00F000
006000
ENDCHAR
STARTCHAR 004
ENCODING 4
SWIDTH 1584 0
DWIDTH 22 0
BBX 20 18 0 -6
BITMAP
00F000
03FC00
0F9F00
1C0380
3861C0
61F860
67FE60
CF0F30
5C03A0
186180
39F9C0
13FC80
070E00
060600
026400
00F000
00F000
006000
ENDCHAR
STARTCHAR 005
ENCODING 5
SWIDTH 1296 0
DWIDTH 18 0
BBX 16 20 0 -7
BITMAP
0180
03C0
07E0
0FF0
0180
019F
019F
719F
F99F
F99F
F98C
719C
31F8
39C0
1F80
0380
0180
03C0
03C0
0180
ENDCHAR
STARTCHAR 006
ENCODING 6
SWIDTH 648 0
DWIDTH 9 0
BBX 7 20 0 -7
BITMAP
10
38
00
38
38
38
FE
00
FE
FE
FE
FE
FE
FE
FE
7C
7C
38
10
10
ENDCHAR
STARTCHAR 007
ENCODING 7
SWIDTH 1584 0
DWIDTH 22 0
BBX 20 16 0 -5
BITMAP
0FFF00
1FFF80
3C03C0
3801C0
30F0C0
71F8E0
F39CF0
F30CF0
730CE0
339CC0
31F8C0
30F0C0
3000C0
3000C0
3FFFC0
3FFFC0
ENDCHAR
STARTCHAR 008
ENCODING 8
SWIDTH 1440 0
DWIDTH 20 0
BBX 18 18 0 -6
BITMAP
03F000
0FFC00
1E1E00
380700
700380
600180
E1E1C0
C330C0
C210C0
C210C0
C330C0
E1E1C0
600180
700380
380700
1E1E00
0FFC00
03F000
ENDCHAR
STARTCHAR 009
ENCODING 9
SWIDTH 360 0
DWIDTH 5 0
BBX 0 0 0 0
BITMAP
ENDCHAR
STARTCHAR 010
ENCODING 10
SWIDTH 1080 0
DWIDTH 15 0
BBX 0 0 0 0
BITMAP
ENDCHAR
STARTCHAR 011
ENCODING 11
SWIDTH 1800 0
DWIDTH 25 0
BBX 23 17 0 -6
BITMAP
000010
000008
550154
AAAAAA
004414
000808
001010
000800
001000
002000
001010
00A208
554554
AA00AA
000014
000008
000010
ENDCHAR
STARTCHAR 012
ENCODING 12
SWIDTH 1800 0
DWIDTH 25 0
BBX 23 18 0 -6
BITMAP
000010
000018
00001C
FF01FE
FFEFFE
00CE1C
001818
001810
001800
003000
003010
003018
00E61C
FFEFFE
FF01FE
00001C
000018
000010
ENDCHAR
STARTCHAR 013
ENCODING 13
SWIDTH 1080 0
DWIDTH 15 0
BBX 0 0 0 0
BITMAP
ENDCHAR
STARTCHAR 014
ENCODING 14
SWIDTH 1800 0
DWIDTH 25 0
BBX 23 20 0 -7
BITMAP
015500
0AAAA0
140050
200008
400004
200008
400004
800002
400004
800002
400004
200008
400004
200208
140450
0A8AA0
011500
000A00
000400
000200
ENDCHAR
STARTCHAR 015
ENCODING 15
SWIDTH 1800 0
DWIDTH 25 0
BBX 23 20 0 -7
BITMAP
03FF80
0FFFE0
3C0078
300018
60000C
60000C
C00006
C00006
C00006
C00006
C00006
60000C
60020C
300618
3C0E78
0F9FE0
039F80
000E00
000600
000200
ENDCHAR
STARTCHAR 016
ENCODING 16
SWIDTH 1800 0
DWIDTH 25 0
BBX 23 20 0 -7
BITMAP
03FF80
0FFFE0
3C0078
300018
60180C
60380C
C07806
C01806
C01806
C01806
C01806
60180C
60020C
300618
3C0E78
0F9FE0
039F80
000E00
000600
000200
ENDCHAR
STARTCHAR 017
ENCODING 17
SWIDTH 1440 0
DWIDTH 20 0
BBX 16 19 1 -6
BITMAP
C000
E000
F800
FC00
FF00
FFC0
FFE0
FFF8
FFFE
FFFF
FFFE
FFF8
FFE0
FFC0
FF00
FC00
F800
E000
C000
ENDCHAR
STARTCHAR 018
ENCODING 18
SWIDTH 1440 0
DWIDTH 20 0
BBX 18 19 0 -6
BITMAP
FE1FC0
FE1FC0
FE1FC0
FE1FC0
FE1FC0
FE1FC0
FE1FC0
FE1FC0
FE1FC0
FE1FC0
FE1FC0
FE1FC0
FE1FC0
FE1FC0
FE1FC0
FE1FC0
FE1FC0
FE1FC0
FE1FC0
ENDCHAR
STARTCHAR 019
ENCODING 19
SWIDTH 1440 0
DWIDTH 20 0
BBX 18 19 0 -6
BITMAP
FFFFC0
FFFFC0
FFFFC0
FFFFC0
FFFFC0
FFFFC0
FFFFC0
FFFFC0
FFFFC0
FFFFC0
FFFFC0
FFFFC0
FFFFC0
FFFFC0
FFFFC0
FFFFC0
FFFFC0
FFFFC0
FFFFC0
ENDCHAR
STARTCHAR 020
ENCODING 20
SWIDTH 1656 0
DWIDTH 23 0
BBX 21 19 0 -6
BITMAP
F80018
F80038
F800F8
F801F8
F807F8
F81FF8
F83FF8
F8FFF8
FBFFF8
FFFFF8
FBFFF8
F8FFF8
F83FF8
F81FF8
F807F8
F801F8
F800F8
F80038
F80018
ENDCHAR
STARTCHAR 021
ENCODING 21
SWIDTH 1656 0
DWIDTH 23 0
BBX 21 19 0 -6
BITMAP
C000F8
E000F8
F800F8
FC00F8
FF00F8
FFC0F8
FFE0F8
FFF8F8
FFFEF8
FFFFF8
FFFEF8
FFF8F8
FFE0F8
FFC0F8
FF00F8
FC00F8
F800F8
E000F8
C000F8
ENDCHAR
STARTCHAR 022
ENCODING 22
SWIDTH 1584 0
DWIDTH 22 0
BBX 20 16 0 -3
BITMAP
006000
007000
307800
307C00
627E00
667FF0
C67FF0
CC7FF0
CC7FF0
C67FF0
667FF0
627E00
307C00
307800
007000
006000
ENDCHAR
STARTCHAR 023
ENCODING 23
SWIDTH 1584 0
DWIDTH 22 0
BBX 13 16 7 -3
BITMAP
3000
3820
3C70
3CE0
39C0
3398
2738
0E78
1CF8
39F8
73F8
E700
4E00
1C00
3800
3000
ENDCHAR
STARTCHAR 024
ENCODING 24
SWIDTH 1584 0
DWIDTH 22 0
BBX 11 16 9 -3
BITMAP
C000
E000
B000
9800
8C00
87E0
8020
8020
8020
8020
87E0
8C00
9800
B000
E000
C000
ENDCHAR
STARTCHAR 025
ENCODING 25
SWIDTH 1584 0
DWIDTH 22 0
BBX 20 16 2 -3
BITMAP
006000
00E000
01E0C0
03E0C0
07E460
FFE660
FFE630
FFE330
FFE330
FFE630
FFE660
07E460
03E0C0
01E0C0
00E000
006000
ENDCHAR
STARTCHAR 026
ENCODING 26
SWIDTH 1584 0
DWIDTH 22 0
BBX 13 16 2 -3
BITMAP
0060
20E0
71E0
39E0
1CE0
CE60
E720
F380
F9C0
FCE0
FE70
0738
0390
01C0
00E0
0060
ENDCHAR
STARTCHAR 027
ENCODING 27
SWIDTH 1584 0
DWIDTH 22 0
BBX 11 16 2 -3
BITMAP
0060
00E0
01A0
0320
0620
FC20
8020
8020
8020
8020
FC20
0620
0320
01A0
00E0
0060
ENDCHAR
STARTCHAR 028
ENCODING 28
SWIDTH 1584 0
DWIDTH 22 0
BBX 0 0 0 0
BITMAP
ENDCHAR
STARTCHAR 029
ENCODING 29
SWIDTH 1584 0
DWIDTH 22 0
BBX 0 0 0 0
BITMAP
ENDCHAR
STARTCHAR 030
ENCODING 30
SWIDTH 1584 0
DWIDTH 22 0
BBX 0 0 0 0
BITMAP
ENDCHAR
STARTCHAR 031
ENCODING 31
SWIDTH 936 0
DWIDTH 13 0
BBX 0 0 0 0
BITMAP
ENDCHAR
STARTCHAR 032
ENCODING 32
SWIDTH 936 0
DWIDTH 13 0
BBX 0 0 0 0
BITMAP
ENDCHAR
STARTCHAR 033
ENCODING 33
SWIDTH 936 0
DWIDTH 13 0
BBX 0 0 0 0
BITMAP
ENDCHAR
STARTCHAR 034
ENCODING 34
SWIDTH 1008 0
DWIDTH 14 0
BBX 0 0 0 0
BITMAP
ENDCHAR
STARTCHAR 035
ENCODING 35
SWIDTH 1512 0
DWIDTH 21 0
BBX 0 0 0 0
BITMAP
ENDCHAR
STARTCHAR 036
ENCODING 36
SWIDTH 1296 0
DWIDTH 18 0
BBX 0 0 0 0
BITMAP
ENDCHAR
STARTCHAR 037
ENCODING 37
SWIDTH 1296 0
DWIDTH 18 0
BBX 0 0 0 0
BITMAP
ENDCHAR
STARTCHAR 038
ENCODING 38
SWIDTH 1296 0
DWIDTH 18 0
BBX 0 0 0 0
BITMAP
ENDCHAR
STARTCHAR 039
ENCODING 39
SWIDTH 1296 0
DWIDTH 18 0
BBX 0 0 0 0
BITMAP
ENDCHAR
STARTCHAR 040
ENCODING 40
SWIDTH 1296 0
DWIDTH 18 0
BBX 0 0 0 0
BITMAP
ENDCHAR
STARTCHAR 041
ENCODING 41
SWIDTH 1296 0
DWIDTH 18 0
BBX 0 0 0 0
BITMAP
ENDCHAR
STARTCHAR 042
ENCODING 42
SWIDTH 1296 0
DWIDTH 18 0
BBX 0 0 0 0
BITMAP
ENDCHAR
STARTCHAR 043
ENCODING 43
SWIDTH 1296 0
DWIDTH 18 0
BBX 0 0 0 0
BITMAP
ENDCHAR
STARTCHAR 044
ENCODING 44
SWIDTH 1296 0
DWIDTH 18 0
BBX 0 0 0 0
BITMAP
ENDCHAR
STARTCHAR 045
ENCODING 45
SWIDTH 1296 0
DWIDTH 18 0
BBX 0 0 0 0
BITMAP
ENDCHAR
STARTCHAR 046
ENCODING 46
SWIDTH 1296 0
DWIDTH 18 0
BBX 0 0 0 0
BITMAP
ENDCHAR
STARTCHAR 047
ENCODING 47
SWIDTH 1296 0
DWIDTH 18 0
BBX 0 0 0 0
BITMAP
ENDCHAR
STARTCHAR 048
ENCODING 48
SWIDTH 1296 0
DWIDTH 18 0
BBX 0 0 0 0
BITMAP
ENDCHAR
STARTCHAR 049
ENCODING 49
SWIDTH 1296 0
DWIDTH 18 0
BBX 0 0 0 0
BITMAP
ENDCHAR
STARTCHAR 050
ENCODING 50
SWIDTH 1296 0
DWIDTH 18 0
BBX 0 0 0 0
BITMAP
ENDCHAR
STARTCHAR 051
ENCODING 51
SWIDTH 1296 0
DWIDTH 18 0
BBX 0 0 0 0
BITMAP
ENDCHAR
STARTCHAR 052
ENCODING 52
SWIDTH 1296 0
DWIDTH 18 0
BBX 0 0 0 0
BITMAP
ENDCHAR
STARTCHAR 053
ENCODING 53
SWIDTH 1296 0
DWIDTH 18 0
BBX 0 0 0 0
BITMAP
ENDCHAR
STARTCHAR 054
ENCODING 54
SWIDTH 1296 0
DWIDTH 18 0
BBX 0 0 0 0
BITMAP
ENDCHAR
STARTCHAR 055
ENCODING 55
SWIDTH 1296 0
DWIDTH 18 0
BBX 0 0 0 0
BITMAP
ENDCHAR
STARTCHAR 056
ENCODING 56
SWIDTH 1296 0
DWIDTH 18 0
BBX 0 0 0 0
BITMAP
ENDCHAR
STARTCHAR 057
ENCODING 57
SWIDTH 1296 0
DWIDTH 18 0
BBX 0 0 0 0
BITMAP
ENDCHAR
STARTCHAR 058
ENCODING 58
SWIDTH 1296 0
DWIDTH 18 0
BBX 0 0 0 0
BITMAP
ENDCHAR
STARTCHAR 059
ENCODING 59
SWIDTH 1296 0
DWIDTH 18 0
BBX 0 0 0 0
BITMAP
ENDCHAR
STARTCHAR 060
ENCODING 60
SWIDTH 1296 0
DWIDTH 18 0
BBX 0 0 0 0
BITMAP
ENDCHAR
STARTCHAR 061
ENCODING 61
SWIDTH 1296 0
DWIDTH 18 0
BBX 0 0 0 0
BITMAP
ENDCHAR
STARTCHAR 062
ENCODING 62
SWIDTH 1296 0
DWIDTH 18 0
BBX 0 0 0 0
BITMAP
ENDCHAR
STARTCHAR 063
ENCODING 63
SWIDTH 1296 0
DWIDTH 18 0
BBX 0 0 0 0
BITMAP
ENDCHAR
STARTCHAR 064
ENCODING 64
SWIDTH 1296 0
DWIDTH 18 0
BBX 0 0 0 0
BITMAP
ENDCHAR
STARTCHAR 065
ENCODING 65
SWIDTH 1296 0
DWIDTH 18 0
BBX 0 0 0 0
BITMAP
ENDCHAR
STARTCHAR 066
ENCODING 66
SWIDTH 1296 0
DWIDTH 18 0
BBX 0 0 0 0
BITMAP
ENDCHAR
STARTCHAR 067
ENCODING 67
SWIDTH 1296 0
DWIDTH 18 0
BBX 0 0 0 0
BITMAP
ENDCHAR
STARTCHAR 068
ENCODING 68
SWIDTH 1296 0
DWIDTH 18 0
BBX 0 0 0 0
BITMAP
ENDCHAR
STARTCHAR 069
ENCODING 69
SWIDTH 1296 0
DWIDTH 18 0
BBX 0 0 0 0
BITMAP
ENDCHAR
STARTCHAR 070
ENCODING 70
SWIDTH 1296 0
DWIDTH 18 0
BBX 0 0 0 0
BITMAP
ENDCHAR
STARTCHAR 071
ENCODING 71
SWIDTH 1296 0
DWIDTH 18 0
BBX 0 0 0 0
BITMAP
ENDCHAR
STARTCHAR 072
ENCODING 72
SWIDTH 1296 0
DWIDTH 18 0
BBX 0 0 0 0
BITMAP
ENDCHAR
STARTCHAR 073
ENCODING 73
SWIDTH 1296 0
DWIDTH 18 0
BBX 0 0 0 0
BITMAP
ENDCHAR
STARTCHAR 074
ENCODING 74
SWIDTH 1296 0
DWIDTH 18 0
BBX 0 0 0 0
BITMAP
ENDCHAR
STARTCHAR 075
ENCODING 75
SWIDTH 1296 0
DWIDTH 18 0
BBX 0 0 0 0
BITMAP
ENDCHAR
STARTCHAR 076
ENCODING 76
SWIDTH 1296 0
DWIDTH 18 0
BBX 0 0 0 0
BITMAP
ENDCHAR
STARTCHAR 077
ENCODING 77
SWIDTH 1296 0
DWIDTH 18 0
BBX 0 0 0 0
BITMAP
ENDCHAR
STARTCHAR 078
ENCODING 78
SWIDTH 1296 0
DWIDTH 18 0
BBX 0 0 0 0
BITMAP
ENDCHAR
STARTCHAR 079
ENCODING 79
SWIDTH 1296 0
DWIDTH 18 0
BBX 0 0 0 0
BITMAP
ENDCHAR
STARTCHAR 080
ENCODING 80
SWIDTH 1296 0
DWIDTH 18 0
BBX 0 0 0 0
BITMAP
ENDCHAR
STARTCHAR 081
ENCODING 81
SWIDTH 1296 0
DWIDTH 18 0
BBX 0 0 0 0
BITMAP
ENDCHAR
STARTCHAR 082
ENCODING 82
SWIDTH 1296 0
DWIDTH 18 0
BBX 0 0 0 0
BITMAP
ENDCHAR
STARTCHAR 083
ENCODING 83
SWIDTH 1296 0
DWIDTH 18 0
BBX 0 0 0 0
BITMAP
ENDCHAR
STARTCHAR 084
ENCODING 84
SWIDTH 1296 0
DWIDTH 18 0
BBX 0 0 0 0
BITMAP
ENDCHAR
STARTCHAR 085
ENCODING 85
SWIDTH 1296 0
DWIDTH 18 0
BBX 0 0 0 0
BITMAP
ENDCHAR
STARTCHAR 086
ENCODING 86
SWIDTH 1296 0
DWIDTH 18 0
BBX 0 0 0 0
BITMAP
ENDCHAR
STARTCHAR 087
ENCODING 87
SWIDTH 1296 0
DWIDTH 18 0
BBX 0 0 0 0
BITMAP
ENDCHAR
STARTCHAR 088
ENCODING 88
SWIDTH 1296 0
DWIDTH 18 0
BBX 0 0 0 0
BITMAP
ENDCHAR
STARTCHAR 089
ENCODING 89
SWIDTH 1296 0
DWIDTH 18 0
BBX 0 0 0 0
BITMAP
ENDCHAR
STARTCHAR 090
ENCODING 90
SWIDTH 1296 0
DWIDTH 18 0
BBX 0 0 0 0
BITMAP
ENDCHAR
STARTCHAR 091
ENCODING 91
SWIDTH 1296 0
DWIDTH 18 0
BBX 0 0 0 0
BITMAP
ENDCHAR
STARTCHAR 092
ENCODING 92
SWIDTH 1296 0
DWIDTH 18 0
BBX 0 0 0 0
BITMAP
ENDCHAR
STARTCHAR 093
ENCODING 93
SWIDTH 1296 0
DWIDTH 18 0
BBX 0 0 0 0
BITMAP
ENDCHAR
STARTCHAR 094
ENCODING 94
SWIDTH 1296 0
DWIDTH 18 0
BBX 0 0 0 0
BITMAP
ENDCHAR
STARTCHAR 095
ENCODING 95
SWIDTH 1296 0
DWIDTH 18 0
BBX 0 0 0 0
BITMAP
ENDCHAR
STARTCHAR 096
ENCODING 96
SWIDTH 1296 0
DWIDTH 18 0
BBX 0 0 0 0
BITMAP
ENDCHAR
STARTCHAR 097
ENCODING 97
SWIDTH 1296 0
DWIDTH 18 0
BBX 0 0 0 0
BITMAP
ENDCHAR
STARTCHAR 098
ENCODING 98
SWIDTH 1296 0
DWIDTH 18 0
BBX 0 0 0 0
BITMAP
ENDCHAR
STARTCHAR 099
ENCODING 99
SWIDTH 1296 0
DWIDTH 18 0
BBX 0 0 0 0
BITMAP
ENDCHAR
STARTCHAR 100
ENCODING 100
SWIDTH 1296 0
DWIDTH 18 0
BBX 0 0 0 0
BITMAP
ENDCHAR
STARTCHAR 101
ENCODING 101
SWIDTH 1296 0
DWIDTH 18 0
BBX 0 0 0 0
BITMAP
ENDCHAR
STARTCHAR 102
ENCODING 102
SWIDTH 1296 0
DWIDTH 18 0
BBX 0 0 0 0
BITMAP
ENDCHAR
STARTCHAR 103
ENCODING 103
SWIDTH 1296 0
DWIDTH 18 0
BBX 0 0 0 0
BITMAP
ENDCHAR
STARTCHAR 104
ENCODING 104
SWIDTH 1296 0
DWIDTH 18 0
BBX 0 0 0 0
BITMAP
ENDCHAR
STARTCHAR 105
ENCODING 105
SWIDTH 1296 0
DWIDTH 18 0
BBX 0 0 0 0
BITMAP
ENDCHAR
STARTCHAR 106
ENCODING 106
SWIDTH 1296 0
DWIDTH 18 0
BBX 0 0 0 0
BITMAP
ENDCHAR
STARTCHAR 107
ENCODING 107
SWIDTH 1296 0
DWIDTH 18 0
BBX 0 0 0 0
BITMAP
ENDCHAR
STARTCHAR 108
ENCODING 108
SWIDTH 1296 0
DWIDTH 18 0
BBX 0 0 0 0
BITMAP
ENDCHAR
STARTCHAR 109
ENCODING 109
SWIDTH 1296 0
DWIDTH 18 0
BBX 0 0 0 0
BITMAP
ENDCHAR
STARTCHAR 110
ENCODING 110
SWIDTH 1296 0
DWIDTH 18 0
BBX 0 0 0 0
BITMAP
ENDCHAR
STARTCHAR 111
ENCODING 111
SWIDTH 1296 0
DWIDTH 18 0
BBX 0 0 0 0
BITMAP
ENDCHAR
STARTCHAR 112
ENCODING 112
SWIDTH 1296 0
DWIDTH 18 0
BBX 0 0 0 0
BITMAP
ENDCHAR
STARTCHAR 113
ENCODING 113
SWIDTH 1296 0
DWIDTH 18 0
BBX 0 0 0 0
BITMAP
ENDCHAR
STARTCHAR 114
ENCODING 114
SWIDTH 1296 0
DWIDTH 18 0
BBX 0 0 0 0
BITMAP
ENDCHAR
STARTCHAR 115
ENCODING 115
SWIDTH 1296 0
DWIDTH 18 0
BBX 0 0 0 0
BITMAP
ENDCHAR
STARTCHAR 116
ENCODING 116
SWIDTH 1296 0
DWIDTH 18 0
BBX 0 0 0 0
BITMAP
ENDCHAR
STARTCHAR 117
ENCODING 117
SWIDTH 1296 0
DWIDTH 18 0
BBX 0 0 0 0
BITMAP
ENDCHAR
STARTCHAR 118
ENCODING 118
SWIDTH 1296 0
DWIDTH 18 0
BBX 0 0 0 0
BITMAP
ENDCHAR
STARTCHAR 119
ENCODING 119
SWIDTH 1296 0
DWIDTH 18 0
BBX 0 0 0 0
BITMAP
ENDCHAR
STARTCHAR 120
ENCODING 120
SWIDTH 1296 0
DWIDTH 18 0
BBX 0 0 0 0
BITMAP
ENDCHAR
STARTCHAR 121
ENCODING 121
SWIDTH 1296 0
DWIDTH 18 0
BBX 0 0 0 0
BITMAP
ENDCHAR
STARTCHAR 122
ENCODING 122
SWIDTH 1296 0
DWIDTH 18 0
BBX 0 0 0 0
BITMAP
ENDCHAR
STARTCHAR 123
ENCODING 123
SWIDTH 1296 0
DWIDTH 18 0
BBX 0 0 0 0
BITMAP
ENDCHAR
STARTCHAR 124
ENCODING 124
SWIDTH 1296 0
DWIDTH 18 0
BBX 0 0 0 0
BITMAP
ENDCHAR
STARTCHAR 125
ENCODING 125
SWIDTH 1296 0
DWIDTH 18 0
BBX 0 0 0 0
BITMAP
ENDCHAR
STARTCHAR 126
ENCODING 126
SWIDTH 1296 0
DWIDTH 18 0
BBX 0 0 0 0
BITMAP
ENDCHAR
STARTCHAR 127
ENCODING 127
SWIDTH 1296 0
DWIDTH 18 0
BBX 0 0 0 0
BITMAP
ENDCHAR
STARTCHAR 128
ENCODING 128
SWIDTH 1656 0
DWIDTH 23 0
BBX 21 20 0 -7
BITMAP
2AAAA0
555550
A00028
405010
82AA08
455510
820208
445110
8AAA88
445110
8AAA88
445110
820208
455510
82AA08
405010
A00028
555550
2AAAA0
140140
ENDCHAR
STARTCHAR 129
ENCODING 129
SWIDTH 1656 0
DWIDTH 23 0
BBX 21 20 0 -7
BITMAP
7FFFF0
FFFFF8
E00038
C0F818
C3FE18
C7FF18
C70718
CE7398
CEFB98
CEFB98
CEFB98
CE7398
C70718
C7FF18
C3FE18
C0F818
E00038
FFFFF8
7FFFF0
1E03C0
ENDCHAR
STARTCHAR 130
ENCODING 130
SWIDTH 1008 0
DWIDTH 14 0
BBX 10 20 1 -7
BITMAP
0600
0D00
1900
1900
1300
0E00
1C00
3700
6780
CCC0
DAC0
D240
4A40
2380
1D00
0100
0900
1D00
1E00
0800
ENDCHAR
STARTCHAR 131
ENCODING 131
SWIDTH 936 0
DWIDTH 13 0
BBX 11 13 1 -4
BITMAP
3800
4E00
8700
C3A0
F180
F980
79A0
3180
0380
0300
0600
0C00
1000
ENDCHAR
STARTCHAR 132
ENCODING 132
SWIDTH 1512 0
DWIDTH 21 0
BBX 18 13 1 -3
BITMAP
800040
C000C0
E001C0
F003C0
FF3FC0
FF3FC0
FF3FC0
FF3FC0
FF3FC0
F003C0
E001C0
C000C0
800040
ENDCHAR
STARTCHAR 133
ENCODING 133
SWIDTH 1296 0
DWIDTH 18 0
BBX 0 0 0 0
BITMAP
ENDCHAR
STARTCHAR 134
ENCODING 134
SWIDTH 1296 0
DWIDTH 18 0
BBX 16 19 0 -6
BITMAP
07E0
1FF8
3EFC
3E7C
7E3E
769E
72CE
F8CF
FC9F
FE3F
FC9F
F8CF
72CE
769E
7E3E
3E7C
3EFC
1FF8
07E0
ENDCHAR
ENDFONT
